<?xml version="1.0" standalone="no"?>
<!DOCTYPE svg PUBLIC "-//W3C//DTD SVG 20010904//EN"
 "http://www.w3.org/TR/2001/REC-SVG-20010904/DTD/svg10.dtd">
<svg version="1.0" xmlns="http://www.w3.org/2000/svg"
 width="1088.000000pt" height="1088.000000pt" viewBox="0 0 1088.000000 1088.000000"
 preserveAspectRatio="xMidYMid meet">
<metadata>
Created by potrace 1.14, written by Peter Selinger 2001-2017
</metadata>
<g transform="translate(0.000000,1088.000000) scale(0.100000,-0.100000)"
fill="#000000" stroke="none">
<path d="M0 10577 l0 -302 23 -10 c12 -6 22 -17 22 -25 0 -8 -10 -16 -22 -18
l-23 -3 0 -5110 0 -5109 5440 0 5440 0 -1 2503 c-1 1376 -4 2492 -6 2479 -6
-29 -37 -41 -94 -36 -61 5 -69 6 -64 15 3 3 -5 9 -16 12 l-21 6 21 27 c11 14
18 30 15 35 -7 11 17 79 28 79 4 0 5 6 2 14 -3 8 6 25 20 37 17 15 22 25 15
30 -13 8 -3 49 12 49 6 0 7 -6 4 -12 -4 -7 1 -4 9 6 21 26 20 33 -3 53 -19 16
-19 39 0 28 5 -4 9 -2 9 4 0 15 -29 40 -56 47 -13 3 -22 10 -19 14 3 5 -1 15
-8 22 -8 7 -12 20 -9 30 3 14 0 17 -12 12 -9 -3 -24 0 -33 7 -15 13 -16 11 -9
-13 6 -28 6 -28 -48 -28 -60 0 -89 7 -80 21 3 5 1 9 -5 9 -5 0 -11 8 -14 18
-3 15 -5 15 -11 -3 -14 -39 -23 -50 -44 -53 -11 -2 -19 -9 -16 -15 2 -7 -5
-18 -17 -25 -23 -15 -49 -2 -49 24 0 20 -16 17 -50 -8 -22 -16 -27 -24 -18
-30 9 -5 6 -8 -8 -8 -12 0 -27 -7 -34 -15 -7 -8 -25 -15 -41 -15 -16 0 -34 -8
-41 -18 -7 -11 -24 -25 -37 -32 -21 -11 -26 -10 -37 4 -10 15 -18 16 -51 7
-39 -11 -80 -14 -55 -4 6 2 12 9 12 15 0 6 -7 8 -15 4 -12 -4 -14 0 -9 21 7
25 5 25 -22 18 -16 -5 -41 -8 -56 -7 -24 1 -31 -6 -48 -43 -11 -24 -20 -49
-20 -54 0 -6 -5 -11 -11 -11 -6 0 -8 -7 -5 -16 4 -11 1 -14 -12 -10 -9 3 -29
-1 -44 -9 -24 -12 -28 -12 -28 1 0 17 -27 19 -32 2 -3 -7 -12 -9 -22 -5 -15 6
-16 10 -6 22 10 12 9 15 -9 15 -11 0 -21 -4 -21 -10 0 -5 -6 -7 -14 -4 -13 5
-75 -21 -86 -36 -10 -14 -120 -100 -120 -94 0 4 -7 0 -16 -7 -36 -30 -118 -69
-144 -69 -13 0 -20 10 -25 37 -6 42 -8 186 -3 275 l3 57 -30 -6 c-16 -3 -39
-14 -50 -23 -23 -20 -40 -16 -72 18 -13 14 -24 22 -24 18 -1 -3 -2 -9 -3 -13
-3 -21 -50 -85 -54 -74 -5 15 -32 -34 -32 -58 0 -38 -23 -92 -44 -106 -19 -13
-73 -33 -188 -71 -21 -7 -66 -64 -174 -219 -206 -294 -344 -501 -344 -515 0
-6 15 -31 33 -55 17 -25 111 -162 207 -306 96 -143 230 -341 298 -440 67 -98
122 -183 122 -189 0 -7 -122 -10 -364 -10 l-363 0 -113 190 c-191 323 -235
394 -245 397 -5 1 -21 -16 -34 -40 -13 -23 -91 -155 -173 -293 l-149 -252
-292 -4 c-325 -4 -387 -1 -387 16 0 6 28 49 62 96 70 98 153 218 540 787 39
57 68 109 65 116 -5 15 -202 303 -332 487 l-81 115 -222 3 c-122 1 -222 -1
-222 -4 0 -4 20 -37 43 -73 115 -175 167 -425 146 -703 -24 -327 -146 -559
-372 -706 -77 -51 -195 -101 -282 -122 -27 -6 -70 -17 -95 -23 -29 -8 -129
-12 -275 -12 -216 1 -236 3 -331 27 -238 63 -374 147 -499 308 -151 196 -218
527 -170 845 25 163 71 287 149 404 20 29 36 55 36 57 0 2 -115 4 -255 4 -140
0 -255 -4 -255 -9 0 -5 7 -28 15 -51 23 -65 20 -222 -5 -296 -24 -70 -60 -127
-107 -171 -35 -33 -145 -93 -170 -93 -32 0 -8 -19 50 -40 179 -65 274 -196
292 -400 23 -252 -126 -461 -382 -537 -52 -16 -128 -18 -750 -21 l-693 -3 0
121 c0 80 -3 119 -10 115 -10 -6 -11 -451 -2 -1342 2 -273 4 -302 19 -296 11
4 14 2 11 -8 -3 -8 -11 -13 -17 -11 -7 1 -11 -28 -11 -95 0 -106 10 -141 29
-105 6 11 11 31 11 44 0 13 12 31 25 41 20 14 25 15 25 4 0 -8 7 -18 16 -21 9
-3 129 -6 268 -6 l252 0 14 -48 c12 -43 41 -82 61 -82 4 0 14 -7 23 -15 16
-17 107 -28 201 -26 68 2 119 10 111 19 -3 3 -1 11 5 19 7 7 9 28 6 48 -3 20
-2 35 4 35 6 0 2 11 -8 24 -25 33 -88 51 -273 77 -94 13 -248 48 -325 74 -211
72 -315 202 -315 395 0 228 143 389 405 456 272 70 635 48 839 -50 91 -44 183
-127 219 -198 25 -50 54 -174 43 -185 -6 -7 -527 -4 -538 3 -4 3 -8 14 -8 24
0 26 -48 80 -87 96 -20 9 -70 14 -130 14 -83 0 -104 -4 -138 -23 -41 -23 -52
-48 -41 -92 4 -16 21 -29 58 -43 67 -26 74 -27 247 -52 195 -28 306 -53 395
-90 137 -57 222 -138 257 -247 34 -100 22 -270 -25 -363 -9 -18 -13 -37 -9
-43 3 -5 1 -7 -5 -3 -6 3 -13 -2 -17 -13 -3 -11 -13 -22 -21 -25 -8 -3 -12
-10 -9 -16 3 -5 2 -10 -2 -10 -11 0 -45 -26 -83 -62 -16 -16 -34 -28 -41 -28
-7 0 -9 -3 -6 -7 4 -3 -1 -11 -10 -18 -13 -10 -15 -29 -13 -111 1 -54 3 -111
3 -126 0 -16 4 -28 8 -28 5 0 9 -7 9 -15 0 -12 5 -13 18 -7 9 5 23 7 30 5 7
-3 12 4 12 19 0 17 11 28 45 45 l44 21 -6 -29 c-3 -18 -1 -29 6 -29 6 0 10 -3
9 -7 -1 -5 2 -19 6 -31 6 -19 13 -22 31 -18 15 4 31 -1 46 -13 l23 -19 -30
-28 c-17 -16 -51 -35 -75 -42 -48 -14 -159 -20 -176 -9 -6 4 -28 -6 -49 -22
-49 -35 -161 -61 -264 -61 -47 0 -92 -6 -114 -15 -39 -17 -103 -10 -206 20
-25 7 -71 18 -104 24 -124 23 -252 111 -372 256 -23 28 -66 79 -96 115 -62 75
-109 150 -129 203 -7 20 -17 37 -21 37 -5 0 -17 14 -28 32 -19 31 -19 31 -24
7 -3 -13 -7 -49 -8 -79 l-3 -55 -42 0 c-24 1 -191 2 -373 3 l-330 2 0 189 c0
248 -6 302 -37 335 -27 30 -53 148 -34 154 6 2 11 15 11 28 0 15 6 24 15 24
39 0 40 24 43 980 2 561 -1 921 -6 915 -5 -6 -42 -54 -81 -107 l-71 -98 -490
0 c-270 0 -490 3 -490 6 0 3 29 43 63 88 35 44 201 263 369 486 168 223 388
515 490 650 l185 245 333 3 332 2 -7 23 c-4 12 -10 67 -14 122 -6 88 -5 103
12 128 17 25 18 49 18 318 -1 233 -4 297 -16 326 -22 52 -21 265 1 283 16 14
14 58 -7 125 -28 95 -62 220 -89 335 -5 19 -14 53 -20 75 -15 53 -28 104 -35
140 -4 17 -10 39 -15 50 -5 11 -11 34 -15 50 -3 17 -11 48 -16 70 -19 70 -22
138 -8 193 11 48 11 57 -5 87 -10 18 -30 38 -44 45 l-27 13 25 7 c29 7 29 4
-4 135 -67 263 -93 384 -89 408 3 13 0 34 -6 44 -5 11 -15 51 -21 89 -6 38
-14 80 -19 94 -5 14 -14 45 -21 70 -6 25 -16 53 -22 64 -5 10 -12 30 -14 44
-3 14 -13 37 -23 51 -10 14 -16 31 -14 37 2 6 -19 101 -46 210 -55 217 -69
281 -75 334 -6 66 -40 155 -80 213 -41 58 -45 75 -62 235 -8 79 7 82 56 10 69
-102 163 -215 273 -329 148 -152 171 -181 213 -264 68 -137 68 -264 -1 -504
-34 -123 -44 -191 -26 -191 12 0 71 68 71 81 0 6 10 25 22 42 12 17 17 27 10
23 -7 -4 -12 -2 -12 6 0 9 -3 9 -10 -2 -8 -13 -11 -13 -26 2 -16 16 -16 21 0
90 10 40 20 80 23 88 10 26 16 156 11 240 -3 47 1 51 28 28 14 -13 20 -24 15
-26 -16 -5 -13 -32 2 -32 19 0 37 -44 37 -88 0 -21 5 -43 11 -49 17 -17 0
-132 -27 -185 l-17 -33 26 23 c27 26 76 42 148 49 61 6 140 -32 203 -97 44
-45 126 -186 126 -215 0 -8 4 -15 8 -15 5 0 7 14 4 30 -2 17 -8 30 -13 30 -5
0 -9 8 -9 18 0 14 2 15 10 2 6 -10 10 -11 10 -3 0 9 7 7 20 -4 11 -10 20 -28
20 -40 0 -13 5 -23 10 -23 6 0 10 -6 10 -14 0 -8 8 -21 19 -28 10 -7 22 -29
26 -48 4 -19 11 -39 15 -45 4 -5 8 -17 8 -25 2 -24 23 -144 27 -158 3 -9 17
-7 57 8 67 25 87 25 149 -2 l51 -21 30 30 c28 29 29 32 15 54 -18 28 -24 75
-13 106 19 58 126 81 194 42 l38 -22 41 26 41 26 -5 58 c-5 53 -3 60 22 85 44
45 153 51 196 12 18 -16 22 -16 54 -1 33 16 35 20 35 65 0 42 5 52 35 82 32
31 39 33 112 37 43 2 84 5 91 8 17 6 15 25 -3 25 -8 0 -15 5 -15 10 0 6 9 10
20 10 11 0 20 -5 20 -12 0 -13 63 53 88 93 51 79 258 219 324 219 13 0 29 5
35 11 27 27 228 5 372 -40 65 -20 66 -20 73 24 2 14 12 21 36 23 18 2 36 10
39 18 3 8 9 14 14 14 4 0 6 -6 3 -13 -2 -7 2 -21 9 -31 24 -33 10 85 -24 205
-65 229 -34 410 99 568 26 31 58 65 72 76 14 11 50 42 81 70 31 27 87 77 124
110 37 32 78 76 92 97 32 52 51 58 77 24 37 -50 160 -169 247 -240 46 -38 107
-95 136 -127 55 -59 103 -82 103 -48 0 33 11 50 25 39 10 -8 15 -6 20 10 4 12
24 39 46 61 25 25 36 44 32 55 -3 9 0 20 8 25 11 6 11 11 1 21 -15 15 -16 54
-1 64 8 4 7 9 -2 14 -9 6 -9 12 4 25 19 19 23 81 5 87 -6 2 -13 24 -14 49 -4
78 -20 170 -31 177 -13 9 -25 82 -13 82 11 0 6 36 -10 75 -8 21 -10 61 -6 130
5 81 3 106 -10 130 -8 17 -16 45 -16 62 0 18 -4 30 -9 27 -5 -3 -9 9 -9 25 l0
31 -3150 0 -3150 0 0 -303z m6215 -297 c3 -5 1 -10 -4 -10 -6 0 -11 5 -11 10
0 6 2 10 4 10 3 0 8 -4 11 -10z m-2975 -15 c6 -8 9 -23 5 -35 -10 -31 -59 -24
-63 9 -6 37 34 55 58 26z m-2660 -308 c0 -8 -3 -17 -7 -20 -9 -9 -34 13 -27
24 8 14 34 11 34 -4z m1140 -157 c0 -5 -4 -10 -10 -10 -5 0 -10 5 -10 10 0 6
5 10 10 10 6 0 10 -4 10 -10z m230 -805 c0 -32 -20 -55 -48 -55 -9 0 -6 118 4
149 8 23 44 -55 44 -94z m-1675 -25 c3 -5 1 -10 -4 -10 -6 0 -11 5 -11 10 0 6
2 10 4 10 3 0 8 -4 11 -10z m795 1 c0 -5 -7 -11 -14 -14 -10 -4 -13 -1 -9 9 6
15 23 19 23 5z m955 -301 c3 -5 -1 -10 -9 -10 -8 0 -18 5 -21 10 -3 6 1 10 9
10 8 0 18 -4 21 -10z m-835 -70 c0 -5 -2 -10 -4 -10 -3 0 -8 5 -11 10 -3 6 -1
10 4 10 6 0 11 -4 11 -10z m1190 -90 c0 -5 -7 -7 -15 -4 -8 4 -15 8 -15 10 0
2 7 4 15 4 8 0 15 -4 15 -10z m-200 -519 c10 -21 3 -78 -11 -87 -5 -3 -9 6 -9
19 0 14 -3 39 -6 56 -7 35 9 43 26 12z m-1080 -431 c0 -5 -4 -10 -10 -10 -5 0
-10 5 -10 10 0 6 5 10 10 10 6 0 10 -4 10 -10z m-840 -111 c0 -5 -7 -9 -15 -9
-15 0 -20 12 -9 23 8 8 24 -1 24 -14z m33 -1194 c1 -5 -6 -11 -15 -13 -11 -2
-18 3 -18 13 0 17 30 18 33 0z m9627 -985 c0 -5 -4 -10 -9 -10 -6 0 -13 5 -16
10 -3 6 1 10 9 10 9 0 16 -4 16 -10z m348 -51 c-2 -6 -8 -10 -13 -10 -5 0 -11
4 -13 10 -2 6 4 11 13 11 9 0 15 -5 13 -11z m-418 -234 c0 -8 -7 -15 -15 -15
-8 0 -15 7 -15 15 0 8 7 15 15 15 8 0 15 -7 15 -15z m140 -35 c0 -5 -7 -10
-15 -10 -8 0 -15 5 -15 10 0 6 7 10 15 10 8 0 15 -4 15 -10z m-562 -132 c-3
-7 -14 -14 -26 -16 -16 -3 -20 1 -16 12 7 19 48 22 42 4z m1392 -43 c0 -8 -7
-15 -15 -15 -8 0 -15 7 -15 15 0 8 7 15 15 15 8 0 15 -7 15 -15z m-70 -195 c0
-5 -5 -10 -11 -10 -5 0 -7 5 -4 10 3 6 8 10 11 10 2 0 4 -4 4 -10z m-10135
-100 c0 -8 -8 -16 -17 -18 -13 -2 -18 3 -18 18 0 15 5 20 18 18 9 -2 17 -10
17 -18z m8199 -195 c3 -8 -2 -22 -11 -30 -14 -15 -17 -15 -31 -1 -13 12 -13
18 -2 30 16 20 36 20 44 1z m2046 -190 c0 -8 -7 -15 -15 -15 -16 0 -20 12 -8
23 11 12 23 8 23 -8z m-570 -241 c0 -8 -7 -14 -15 -14 -15 0 -21 21 -9 33 10
9 24 -2 24 -19z m60 -74 c0 -5 -4 -10 -10 -10 -5 0 -10 5 -10 10 0 6 5 10 10
10 6 0 10 -4 10 -10z m-510 -321 c0 -5 -7 -9 -15 -9 -15 0 -20 12 -9 23 8 8
24 -1 24 -14z m977 -17 c-18 -2 -27 -14 -42 -54 -19 -55 -50 -93 -65 -83 -6 4
-10 -1 -10 -9 0 -19 16 -21 23 -3 2 6 8 8 13 4 5 -4 2 -12 -6 -17 -11 -7 -11
-11 -1 -23 8 -10 9 -17 1 -22 -5 -3 -10 1 -10 9 0 23 -29 19 -50 -6 -16 -20
-19 -21 -25 -7 -4 11 -14 15 -26 12 -23 -6 -26 12 -4 21 9 3 21 20 27 37 8 23
13 28 20 17 7 -9 8 -7 4 7 -4 15 5 31 34 59 22 21 40 43 40 47 0 5 11 9 24 9
15 0 26 7 29 21 5 20 6 20 27 2 l21 -18 -24 -3z m-1259 -19 c-4 -22 -22 -20
-26 1 -2 10 3 16 13 16 10 0 15 -7 13 -17z m-8859 -47 c9 -11 8 -15 -5 -20
-27 -10 -54 -7 -54 8 0 25 41 34 59 12z m6183 -115 c-2 -17 -10 -35 -18 -42
-11 -9 -10 -15 7 -32 17 -19 19 -31 14 -93 -6 -81 1 -101 58 -157 20 -21 37
-44 37 -52 0 -8 4 -15 9 -15 6 0 6 -12 0 -30 -6 -16 -15 -30 -20 -30 -11 0
-39 -66 -39 -91 0 -21 -56 -79 -76 -79 -11 0 -10 9 1 46 21 72 17 75 -94 73
-102 -1 -178 14 -278 55 -32 13 -66 27 -75 30 -14 4 -16 12 -11 38 3 18 13 37
21 42 17 10 35 28 82 84 19 23 40 42 45 42 6 0 26 10 45 22 19 12 41 23 47 24
32 6 73 30 84 50 13 26 105 107 132 117 9 3 17 14 17 22 0 9 4 14 8 11 5 -3 7
-19 4 -35z m3068 -35 c0 -11 -19 -15 -25 -6 -3 5 1 10 9 10 9 0 16 -2 16 -4z
m690 -16 c0 -8 -28 -13 -56 -9 -4 0 -11 -5 -16 -13 -8 -10 -9 -10 -5 2 2 8 9
15 15 15 5 0 14 3 18 8 11 11 44 9 44 -3z m-3744 -27 c-10 -10 -19 5 -10 18 6
11 8 11 12 0 2 -7 1 -15 -2 -18z m3642 -7 c-8 -6 -16 -15 -18 -21 -7 -27 -13
-35 -26 -35 -8 0 -14 9 -14 20 0 11 4 20 9 20 5 0 12 9 16 19 6 21 37 33 44
17 2 -5 -3 -14 -11 -20z m-5239 15 c10 -7 14 -55 17 -222 l3 -214 158 -5 158
-5 3 -187 2 -188 -110 -1 c-60 -1 -114 -3 -120 -4 -5 -1 -31 -3 -56 -4 l-47
-1 7 -327 c6 -253 11 -333 22 -355 24 -46 61 -58 177 -58 67 0 107 -4 115 -12
8 -8 12 -59 12 -164 l0 -153 -52 -14 c-73 -21 -227 -37 -346 -37 -121 0 -269
28 -340 64 -56 28 -72 32 -72 15 0 -14 -87 -99 -101 -99 -6 0 -23 -9 -38 -19
-17 -13 -44 -19 -78 -19 l-52 -1 6 35 c4 27 2 34 -10 34 -35 0 -39 36 -12 111
14 40 26 73 27 75 8 6 101 34 116 34 10 0 24 8 32 18 13 14 14 57 9 282 -3
146 -4 338 -1 428 l5 162 -106 0 -107 0 0 195 0 195 120 0 c106 0 120 2 120
17 0 9 4 30 10 47 5 17 19 65 31 106 12 41 30 107 41 145 11 39 25 82 30 97
l10 28 162 3 c88 1 179 3 201 5 22 1 46 -2 54 -7z m-829 -5 c0 -3 -4 -8 -10
-11 -5 -3 -10 -1 -10 4 0 6 5 11 10 11 6 0 10 -2 10 -4z m-398 -81 c0 -5 -5
-11 -11 -13 -6 -2 -11 4 -11 13 0 9 5 15 11 13 6 -2 11 -8 11 -13z m-2748 -30
c-6 -15 -42 -30 -51 -21 -10 9 18 36 38 36 12 0 16 -5 13 -15z m9396 -145 c0
-5 -2 -10 -4 -10 -3 0 -8 5 -11 10 -3 6 -1 10 4 10 6 0 11 -4 11 -10z m-230
-24 c0 -18 -15 -36 -31 -36 -18 0 -26 20 -12 33 7 8 43 10 43 3z m337 -22 c-3
-3 -12 -4 -19 -1 -8 3 -5 6 6 6 11 1 17 -2 13 -5z m-3497 -164 c0 -5 -4 -10
-10 -10 -5 0 -10 5 -10 10 0 6 5 10 10 10 6 0 10 -4 10 -10z m-1044 -156 c-3
-9 -6 -18 -6 -20 0 -2 -7 -4 -15 -4 -18 0 -19 12 -3 28 17 17 31 15 24 -4z
m-5517 -50 c-9 -11 -15 -12 -23 -4 -8 8 -7 13 4 20 20 12 33 1 19 -16z m6536
-94 c3 -5 1 -10 -4 -10 -6 0 -11 5 -11 10 0 6 2 10 4 10 3 0 8 -4 11 -10z
m-5615 -325 c0 -8 -7 -15 -15 -15 -16 0 -20 12 -8 23 11 12 23 8 23 -8z m1090
-197 c0 -13 -7 -32 -15 -42 -12 -16 -17 -17 -30 -6 -17 14 -21 35 -5 25 6 -4
7 2 1 17 -8 22 -6 24 20 26 24 2 29 -1 29 -20z m6763 -234 c11 -11 -5 -34 -24
-34 -22 0 -24 11 -7 28 13 13 22 15 31 6z m-5248 -213 c-3 -6 -11 -11 -17 -11
-6 0 -6 6 2 15 14 17 26 13 15 -4z m3576 -18 c39 -23 47 -57 23 -100 -19 -36
-77 -73 -114 -73 -29 0 -76 26 -84 45 -3 9 -6 28 -6 41 0 80 106 131 181 87z
m1739 -33 c0 -5 -4 -10 -10 -10 -5 0 -10 5 -10 10 0 6 5 10 10 10 6 0 10 -4
10 -10z m-2150 -15 c0 -9 -9 -15 -21 -15 -18 0 -19 2 -9 15 7 8 16 15 21 15 5
0 9 -7 9 -15z m-2949 -540 c-4 -39 -8 -45 -32 -45 -18 0 -20 4 -14 33 10 43
14 49 33 45 12 -2 16 -12 13 -33z m3989 -20 c0 -8 -7 -15 -15 -15 -16 0 -20
12 -8 23 11 12 23 8 23 -8z m-3822 -46 c-2 -12 -15 -31 -30 -42 -28 -21 -28
-21 -86 9 -1 1 2 13 7 28 10 23 16 26 61 26 47 0 51 -2 48 -21z m1914 -4 c0
-5 -5 -11 -11 -13 -6 -2 -11 4 -11 13 0 9 5 15 11 13 6 -2 11 -8 11 -13z
m2428 -265 c0 -11 -6 -20 -13 -20 -19 0 -27 10 -20 26 8 21 33 17 33 -6z m150
-110 c0 -5 -4 -10 -10 -10 -5 0 -10 5 -10 10 0 6 5 10 10 10 6 0 10 -4 10 -10z
m-1110 -49 c0 -6 -4 -13 -10 -16 -5 -3 -10 1 -10 9 0 9 5 16 10 16 6 0 10 -4
10 -9z m644 -292 c-3 -5 -10 -7 -15 -3 -5 3 -7 10 -3 15 3 5 10 7 15 3 5 -3 7
-10 3 -15z"/>
<path d="M5715 9620 c-62 -11 -91 -26 -141 -72 -59 -54 -84 -107 -84 -178 0
-182 227 -304 413 -222 128 57 189 195 138 308 -55 121 -190 189 -326 164z
m113 -35 l24 -25 -26 -10 c-16 -6 -26 -17 -26 -29 0 -11 -9 -25 -20 -31 -11
-6 -20 -17 -20 -24 0 -16 -118 -12 -134 4 -5 5 -18 10 -28 10 -18 0 -24 24
-12 54 7 18 62 54 102 66 15 5 47 9 72 9 35 1 50 -5 68 -24z m171 -327 c-16
-29 -39 -47 -61 -48 -25 0 -23 6 15 40 40 37 63 40 46 8z"/>
<path d="M2400 8970 c0 -5 5 -10 11 -10 5 0 7 5 4 10 -3 6 -8 10 -11 10 -2 0
-4 -4 -4 -10z"/>
<path d="M4748 8823 c6 -2 18 -2 25 0 6 3 1 5 -13 5 -14 0 -19 -2 -12 -5z"/>
<path d="M4685 8810 c-13 -6 -15 -9 -5 -9 8 0 22 4 30 9 18 12 2 12 -25 0z"/>
<path d="M4635 8791 c-3 -5 -1 -12 4 -15 5 -3 11 1 15 9 6 16 -9 21 -19 6z"/>
<path d="M4590 8760 l-25 -21 28 12 c15 7 27 16 27 21 0 11 -1 10 -30 -12z"/>
<path d="M5355 8771 c-3 -6 3 -15 14 -20 25 -14 31 -14 31 -1 0 6 -3 9 -7 9
-20 -3 -34 2 -28 11 3 6 4 10 1 10 -3 0 -7 -4 -11 -9z"/>
<path d="M4503 8687 c-50 -53 -74 -91 -93 -144 -8 -24 -8 -25 3 -9 6 10 26 37
44 61 18 23 30 45 27 48 -3 3 3 8 14 11 11 4 22 14 26 24 3 9 13 27 22 40 28
38 9 24 -43 -31z"/>
<path d="M4724 8668 c-53 -17 -127 -81 -156 -133 -49 -89 -34 -188 38 -265 62
-67 129 -95 224 -94 166 0 289 107 290 252 0 100 -71 191 -181 233 -54 21
-162 24 -215 7z m120 -29 c-1 -11 5 -14 22 -11 14 2 24 0 24 -7 0 -6 -6 -11
-14 -11 -8 0 -24 -15 -35 -33 -33 -55 -102 -78 -152 -52 -23 12 -34 14 -44 5
-12 -10 -13 -5 -8 27 7 42 19 55 78 84 50 24 131 23 129 -2z m206 -323 c0 -17
-58 -61 -68 -51 -5 5 53 65 64 65 2 0 4 -6 4 -14z"/>
<path d="M6618 8663 c6 -2 18 -2 25 0 6 3 1 5 -13 5 -14 0 -19 -2 -12 -5z"/>
<path d="M6713 8663 c9 -2 25 -2 35 0 9 3 1 5 -18 5 -19 0 -27 -2 -17 -5z"/>
<path d="M6566 8651 c-4 -5 3 -7 14 -4 23 6 26 13 6 13 -8 0 -17 -4 -20 -9z"/>
<path d="M6780 8650 c0 -5 7 -10 16 -10 8 0 12 -4 9 -10 -4 -6 5 -10 19 -10
14 0 26 -4 26 -10 0 -5 6 -10 14 -10 8 0 16 -6 19 -12 2 -7 8 -10 11 -6 7 6
-91 78 -106 78 -5 0 -8 -4 -8 -10z"/>
<path d="M5505 8631 c3 -5 -2 -12 -10 -14 -12 -4 -12 -5 1 -3 19 1 32 26 14
26 -6 0 -9 -4 -5 -9z"/>
<path d="M6479 8588 c-63 -66 -82 -132 -63 -227 11 -51 95 -136 160 -160 120
-45 250 -17 329 71 25 27 45 59 45 71 0 11 -3 17 -7 14 -3 -4 -12 1 -19 11 -9
14 -10 27 -1 61 9 34 9 44 -2 50 -7 5 -11 13 -7 19 3 5 -1 12 -9 16 -16 6 -17
5 -19 -38 -1 -16 -7 -31 -14 -34 -7 -2 -12 -10 -12 -17 0 -8 -5 -17 -10 -20
-13 -8 -40 19 -40 39 0 9 -4 16 -10 16 -5 0 -10 5 -10 10 0 6 -12 24 -27 40
-32 37 -72 41 -74 8 -2 -45 -4 -51 -16 -55 -8 -3 -13 4 -13 16 0 17 -6 21 -30
21 -16 0 -30 -4 -30 -10 0 -5 -15 -1 -32 10 -18 11 -45 20 -59 20 -23 0 -26 4
-25 35 1 19 3 35 6 35 13 1 64 50 52 50 -7 0 -35 -23 -63 -52z m449 -256 c5
-17 -53 -72 -77 -72 -12 0 -21 6 -21 15 0 8 6 15 13 15 7 0 23 14 37 30 25 30
40 34 48 12z"/>
<path d="M5830 8581 c-22 -7 -17 -10 33 -21 76 -18 89 -35 22 -31 -11 1 3 -10
30 -23 28 -14 56 -25 62 -25 18 -1 80 -41 64 -41 -8 0 -51 13 -95 29 -134 49
-137 49 -93 6 20 -20 37 -42 36 -48 0 -9 -2 -8 -6 1 -2 6 -14 12 -25 12 -17 0
-13 -8 24 -51 147 -173 107 -157 -56 22 -52 57 -51 59 -30 -26 5 -19 2 -25 -9
-25 -13 0 -15 -10 -10 -57 8 -76 -9 -63 -27 21 -16 79 -26 97 -40 76 -5 -8
-10 -25 -10 -38 0 -18 -4 -22 -18 -18 -16 5 -22 -5 -42 -66 -22 -68 -52 -126
-35 -68 7 25 17 79 31 158 5 34 4 42 -9 42 -8 0 -18 -7 -21 -16 -4 -11 -13
-14 -27 -11 -28 8 -139 -96 -139 -130 0 -72 86 -175 182 -218 212 -95 470 27
495 234 7 62 -12 138 -40 152 -14 8 -16 13 -8 19 22 13 -84 107 -145 130 -59
22 -57 21 -94 11z m-33 -361 c1 -11 -2 -20 -8 -20 -5 0 -9 9 -9 20 0 11 4 20
8 20 4 0 8 -9 9 -20z m214 -82 c-30 -27 -61 -37 -61 -20 0 5 11 15 25 22 14 7
33 25 42 39 16 24 18 24 21 6 3 -12 -7 -29 -27 -47z"/>
<path d="M5575 8544 l-30 -14 30 6 c17 3 34 10 40 15 14 13 -5 11 -40 -7z"/>
<path d="M2600 8513 c-29 -20 -41 -35 -70 -85 -19 -34 -19 -36 -2 -31 10 2 29
21 41 42 13 21 37 46 52 57 16 10 29 22 29 27 0 12 -24 8 -50 -10z"/>
<path d="M5502 8478 c-45 -49 -92 -188 -64 -188 17 0 99 116 105 148 6 30 5
32 -13 22 -34 -18 -42 -10 -13 15 15 13 23 25 17 25 -6 0 -20 -10 -32 -22z"/>
<path d="M4145 8392 c-49 -26 -112 -57 -140 -69 -107 -47 -320 -178 -475 -292
-106 -78 -182 -143 -280 -241 -128 -127 -137 -141 -191 -273 -17 -42 -48 -103
-70 -135 -55 -80 -52 -91 17 -65 6 2 33 -12 59 -33 26 -20 71 -51 99 -69 93
-60 136 -129 136 -217 0 -97 -57 -162 -169 -195 -75 -21 -145 -7 -219 44 -30
21 -75 52 -101 70 -25 18 -54 32 -63 32 -16 1 -15 -4 3 -56 29 -86 87 -197
124 -240 l32 -38 54 12 c30 7 124 28 209 48 85 20 211 46 279 59 146 26 163
39 163 122 0 64 -18 107 -90 207 -82 114 -116 177 -153 287 -28 81 -33 110
-33 190 0 86 2 99 26 135 26 40 94 106 106 103 22 -5 114 16 118 27 3 7 -2 28
-11 45 -25 48 -12 46 15 -3 29 -52 36 -57 82 -57 34 0 37 2 41 33 l4 32 1 -36
c1 -21 10 -43 22 -54 33 -30 40 -24 125 129 8 16 18 26 21 24 2 -3 -16 -46
-42 -96 -46 -89 -51 -122 -19 -122 13 0 141 74 155 90 3 3 19 11 35 18 l30 13
-25 -21 c-14 -12 -57 -43 -97 -70 -80 -56 -86 -61 -77 -84 6 -14 20 -16 113
-10 124 8 131 -2 11 -16 -46 -5 -84 -11 -86 -13 -2 -2 -1 -17 2 -33 6 -31 20
-39 129 -82 42 -16 66 -32 49 -32 -6 0 -38 11 -72 25 -88 36 -89 35 -82 -32 7
-59 26 -113 42 -113 4 0 8 -5 8 -12 0 -9 -3 -9 -12 0 -21 21 -26 13 -32 -45
-11 -102 -29 -197 -49 -248 -10 -27 -27 -79 -37 -115 -10 -36 -23 -64 -28 -63
-6 1 -3 -11 5 -27 17 -34 40 -37 147 -20 66 10 382 43 590 60 346 30 642 219
758 485 53 122 80 285 59 362 -15 56 -90 153 -139 181 -56 31 -116 30 -138 -3
-22 -34 -14 -124 22 -225 68 -191 9 -421 -147 -571 -84 -82 -175 -114 -320
-114 -98 0 -110 2 -165 30 -44 23 -71 46 -104 91 -65 85 -85 153 -85 291 0 98
3 115 21 140 19 24 27 28 65 26 175 -10 234 -8 274 12 22 11 40 25 40 32 0 6
-32 34 -72 62 -110 77 -224 220 -284 355 -52 118 -73 224 -78 394 -1 12 -4 22
-8 21 -5 0 -48 -22 -98 -47z"/>
<path d="M6962 8420 c0 -14 2 -19 5 -12 2 6 2 18 0 25 -3 6 -5 1 -5 -13z"/>
<path d="M2554 8281 c-37 -22 -69 -93 -79 -171 -17 -142 58 -316 145 -335 87
-19 157 98 148 247 l-3 53 -38 3 c-42 4 -59 29 -56 86 1 17 -2 39 -6 49 -6 14
-4 16 11 11 11 -4 25 -12 33 -18 10 -7 8 1 -5 23 -21 37 -68 71 -99 71 -11 0
-34 -9 -51 -19z m42 -458 c-9 -9 -36 18 -36 35 0 12 5 11 21 -7 12 -12 18 -25
15 -28z"/>
<path d="M2390 8265 c0 -9 5 -15 11 -13 6 2 11 8 11 13 0 5 -5 11 -11 13 -6 2
-11 -4 -11 -13z"/>
<path d="M2340 8250 c-8 -5 -27 -10 -42 -10 -36 0 -36 -14 1 -30 36 -15 83
-18 107 -9 17 7 17 8 2 8 -10 1 -20 12 -24 26 -7 26 -19 31 -44 15z"/>
<path d="M7248 8147 c-3 -19 -2 -25 4 -19 6 6 8 18 6 28 -3 14 -5 12 -10 -9z"/>
<path d="M7205 8049 c-79 -168 -185 -303 -311 -396 -74 -54 -72 -64 14 -89 55
-16 96 -16 233 2 44 6 47 5 73 -29 22 -29 29 -50 33 -109 14 -191 -93 -385
-240 -434 -116 -39 -305 -10 -410 63 -52 36 -110 110 -152 193 -71 141 -84
283 -39 412 63 179 51 268 -37 268 -54 0 -146 -82 -191 -168 -19 -39 -23 -60
-22 -136 2 -269 168 -520 429 -646 136 -67 247 -100 370 -111 191 -17 516 -50
617 -63 67 -8 101 -9 108 -2 18 18 11 85 -20 179 -44 133 -58 192 -66 280 -4
42 -11 77 -17 77 -5 0 -27 -18 -48 -40 -22 -22 -42 -40 -45 -40 -7 0 30 54 72
103 21 25 33 53 38 84 3 25 4 48 2 50 -2 2 -51 -12 -109 -31 -177 -60 -175
-43 3 27 85 34 116 52 122 68 5 12 7 23 5 25 -1 2 -60 11 -130 20 -70 9 -135
23 -145 31 -15 12 -8 13 53 8 39 -4 97 -11 130 -16 93 -14 115 -12 115 10 0
22 -45 55 -65 47 -10 -3 -12 0 -8 11 5 13 1 15 -20 11 -15 -3 -28 -1 -28 3 -1
5 -2 13 -3 19 0 5 -7 15 -14 22 -10 10 -15 10 -23 -2 -9 -13 -10 -12 -5 2 7
25 -33 47 -48 26 -12 -15 -46 -13 -46 4 0 5 7 7 16 4 14 -5 15 -4 4 9 -11 13
-10 14 4 9 9 -3 16 -2 16 4 0 12 -29 24 -41 16 -5 -3 -9 -13 -9 -22 0 -14 -1
-14 -12 0 -7 9 -22 18 -33 20 -12 2 -21 12 -23 26 -2 14 -10 22 -23 22 -23 0
-23 4 -4 33 9 15 11 27 5 37 -5 8 -10 10 -10 4 0 -6 -7 -11 -15 -11 -16 0 -13
20 10 67 8 16 9 32 4 45 -9 20 -9 20 -6 0 2 -11 -2 -26 -9 -33 -19 -18 -26
-15 -13 6 8 13 9 31 3 57 l-9 37 -30 -63z m249 -290 c-3 -5 -10 -7 -15 -3 -5
3 -7 10 -3 15 3 5 10 7 15 3 5 -3 7 -10 3 -15z"/>
<path d="M8132 8073 c-9 -16 -8 -24 7 -37 16 -15 20 -15 49 0 36 17 33 38 -4
31 -15 -3 -28 1 -33 11 -7 13 -10 12 -19 -5z m33 -31 c-3 -3 -11 0 -18 7 -9
10 -8 11 6 5 10 -3 15 -9 12 -12z m42 12 c-3 -3 -12 -4 -19 -1 -8 3 -5 6 6 6
11 1 17 -2 13 -5z"/>
<path d="M8160 8079 c0 -5 5 -7 10 -4 6 3 10 8 10 11 0 2 -4 4 -10 4 -5 0 -10
-5 -10 -11z"/>
<path d="M7530 7846 c0 -3 9 -10 20 -16 11 -6 20 -8 20 -6 0 3 -9 10 -20 16
-11 6 -20 8 -20 6z"/>
<path d="M7792 7820 c0 -19 2 -27 5 -17 2 9 2 25 0 35 -3 9 -5 1 -5 -18z"/>
<path d="M7440 7836 c0 -9 30 -14 35 -6 4 6 -3 10 -14 10 -12 0 -21 -2 -21 -4z"/>
<path d="M7498 7826 c-13 -10 -15 -15 -6 -24 16 -16 33 -15 19 1 -8 10 -7 17
1 25 16 16 7 15 -14 -2z"/>
<path d="M7550 7803 c0 -5 9 -14 20 -21 11 -7 20 -8 20 -2 0 5 -9 14 -20 20
-11 6 -20 7 -20 3z"/>
<path d="M7694 7790 c1 -9 13 -16 29 -18 21 -3 27 1 26 15 0 10 -3 13 -6 6 -2
-7 -13 -13 -23 -13 -10 0 -20 6 -23 13 -2 7 -3 6 -3 -3z"/>
<path d="M7617 7781 c-4 -17 -3 -21 5 -13 5 5 8 16 6 23 -3 8 -7 3 -11 -10z"/>
<path d="M7546 7765 c25 -19 40 -19 20 0 -8 8 -20 15 -27 15 -7 0 -4 -6 7 -15z"/>
<path d="M7636 7765 c-9 -26 -7 -32 5 -12 6 10 9 21 6 23 -2 3 -7 -2 -11 -11z"/>
<path d="M7653 7735 c5 -11 1 -12 -19 -5 -35 14 -54 12 -29 -2 11 -6 24 -17
28 -25 9 -15 33 -17 42 -3 8 14 -4 50 -17 50 -5 0 -8 -7 -5 -15z"/>
<path d="M3590 7701 c0 -9 72 -62 78 -57 2 3 -1 13 -7 24 -11 20 -71 48 -71
33z"/>
<path d="M3494 7681 c-65 -39 -51 -50 71 -58 l80 -4 -44 40 c-49 46 -63 49
-107 22z"/>
<path d="M7940 7684 c-27 -12 -32 -17 -20 -24 8 -5 11 -10 5 -10 -24 -1 23
-20 48 -20 24 0 26 2 15 13 -7 8 -20 16 -28 20 -10 4 -8 6 7 6 12 1 25 5 28
11 4 6 -1 7 -11 3 -12 -4 -15 -3 -10 5 9 15 9 15 -34 -4z"/>
<path d="M8170 7671 c0 -6 4 -13 10 -16 6 -3 7 1 4 9 -7 18 -14 21 -14 7z"/>
<path d="M2551 7589 c-16 -45 -14 -286 4 -401 19 -130 86 -325 107 -312 5 3 5
11 1 17 -21 32 -32 82 -21 92 8 7 9 5 5 -7 -3 -10 -1 -20 5 -24 6 -4 8 -3 5 3
-8 13 17 36 28 25 5 -4 -2 8 -14 26 -12 17 -34 60 -48 94 -27 66 -30 122 -19
353 4 77 2 117 -7 134 -18 36 -33 36 -46 0z m109 -584 c8 -9 9 -15 2 -15 -6 0
-14 5 -17 10 -4 6 -11 7 -17 4 -7 -4 -8 -2 -4 4 10 16 21 15 36 -3z"/>
<path d="M3424 7585 c-13 -33 -20 -95 -9 -95 7 0 133 49 182 71 24 10 48 19
55 19 56 0 -133 38 -195 40 -11 0 -23 -13 -33 -35z"/>
<path d="M8203 7613 c-7 -2 -13 -9 -13 -15 0 -7 5 -7 13 1 8 6 17 8 20 4 4 -3
7 -1 7 5 0 13 -7 14 -27 5z"/>
<path d="M7970 7589 c0 -4 6 -10 13 -12 7 -4 6 -6 -5 -6 -9 -1 -19 5 -21 12
-4 9 -6 9 -6 -1 -1 -7 7 -15 17 -19 23 -8 52 -39 45 -47 -6 -6 20 -10 45 -7 6
1 12 -4 12 -10 0 -7 2 -10 5 -8 2 3 -7 27 -21 54 -21 43 -29 50 -54 50 -17 1
-30 -2 -30 -6z"/>
<path d="M4826 7549 c-19 -32 -81 -82 -131 -104 -47 -21 -160 -36 -215 -29
-60 8 -65 -5 -14 -37 31 -19 45 -21 106 -16 119 10 223 79 263 173 19 46 15
53 -9 13z m-106 -113 c0 -3 -4 -8 -10 -11 -5 -3 -10 -1 -10 4 0 6 5 11 10 11
6 0 10 -2 10 -4z m-87 -33 c-7 -2 -21 -2 -30 0 -10 3 -4 5 12 5 17 0 24 -2 18
-5z"/>
<path d="M2855 7540 c-9 -18 -14 -34 -12 -37 3 -2 12 10 21 28 9 18 14 34 12
37 -3 2 -12 -10 -21 -28z"/>
<path d="M8204 7548 c1 -13 -1 -27 -5 -33 -4 -5 -9 -30 -12 -55 -11 -91 -100
-279 -187 -395 -98 -132 -121 -205 -85 -275 17 -32 23 -35 120 -50 101 -15
352 -67 476 -97 65 -16 117 -23 133 -19 66 16 190 296 132 296 -7 0 -45 -24
-84 -54 -84 -62 -139 -81 -220 -73 -146 13 -240 123 -213 248 21 94 31 106
202 232 69 50 83 65 73 75 -7 7 -17 12 -22 12 -4 0 -14 15 -21 33 -8 20 -25
38 -42 46 -16 7 -26 17 -23 23 4 7 2 8 -4 4 -6 -4 -9 -13 -5 -22 5 -13 -5 -15
-58 -12 -60 3 -64 5 -62 25 2 13 -1 22 -5 21 -11 -4 -72 26 -72 35 0 5 6 5 13
1 10 -6 10 -4 0 7 -7 7 -13 21 -13 31 0 10 -4 18 -9 18 -4 0 -7 -10 -7 -22z"/>
<path d="M3535 7516 l-120 -42 1 -49 c3 -78 48 -163 112 -212 36 -28 52 -33
96 -33 45 0 58 5 93 35 61 52 70 88 42 177 -31 102 -42 111 -63 51 -10 -26
-21 -57 -26 -68 -9 -20 -9 -20 -9 1 -1 11 4 46 10 78 7 31 10 59 7 61 -3 3
-40 -30 -82 -72 -75 -75 -93 -76 -24 -2 67 74 103 122 86 118 -2 0 -57 -19
-123 -43z m25 -288 c0 -4 -9 -3 -20 4 -11 7 -20 19 -20 27 0 11 5 10 20 -4 11
-10 20 -22 20 -27z"/>
<path d="M7880 7513 c0 -5 11 -20 24 -35 14 -14 22 -29 18 -32 -3 -4 2 -4 12
0 12 5 17 4 13 -2 -3 -6 2 -21 11 -35 27 -40 76 -99 83 -99 10 0 30 51 38 97
5 24 5 43 0 43 -4 0 -10 -10 -12 -22 -4 -19 -4 -19 -6 5 -1 22 -9 31 -37 43
-20 8 -43 14 -52 12 -10 -2 -21 2 -27 8 -12 14 -65 28 -65 17z m115 -63 c-3
-5 -12 -10 -18 -10 -7 0 -6 4 3 10 19 12 23 12 15 0z"/>
<path d="M3768 7478 c-2 -13 1 -40 8 -58 l12 -35 1 45 c1 53 -14 86 -21 48z"/>
<path d="M7840 7435 c0 -37 32 -229 39 -237 19 -22 141 51 141 84 0 12 -138
156 -162 169 -15 8 -18 5 -18 -16z m164 -158 c-16 -28 -38 -47 -56 -47 -26 0
-22 15 13 44 30 25 56 27 43 3z"/>
<path d="M2786 7404 c-9 -20 -15 -38 -13 -41 3 -2 12 13 22 32 9 20 15 38 13
41 -3 2 -12 -13 -22 -32z"/>
<path d="M7773 7428 c-7 -8 -20 -31 -28 -52 -14 -34 -14 -40 3 -79 19 -43 73
-97 97 -97 14 0 10 20 -37 169 -19 61 -25 71 -35 59z"/>
<path d="M2758 7329 c-4 -72 7 -90 57 -87 l30 1 -28 4 c-21 3 -27 9 -23 20 4
10 2 13 -7 10 -15 -6 -21 34 -6 44 6 3 4 11 -6 19 -13 11 -15 9 -17 -11z"/>
<path d="M5388 7218 c-8 -18 -34 -58 -57 -88 -22 -30 -41 -57 -41 -60 0 -3
-28 -25 -61 -50 -58 -43 -59 -45 -32 -48 27 -4 61 25 113 95 38 51 101 165 97
176 -1 5 -10 -6 -19 -25z"/>
<path d="M6140 7170 c0 -5 5 -10 11 -10 5 0 7 5 4 10 -3 6 -8 10 -11 10 -2 0
-4 -4 -4 -10z"/>
<path d="M6170 7135 c0 -5 5 -17 10 -25 5 -8 10 -10 10 -5 0 6 -5 17 -10 25
-5 8 -10 11 -10 5z"/>
<path d="M2906 7105 c4 -8 8 -15 10 -15 2 0 4 7 4 15 0 8 -4 15 -10 15 -5 0
-7 -7 -4 -15z"/>
<path d="M2795 7101 l-30 -7 24 -13 c16 -9 38 -11 70 -6 25 4 40 10 33 12 -6
3 -10 8 -8 11 6 9 -52 11 -89 3z"/>
<path d="M6284 6999 c-9 -15 10 -32 30 -27 15 3 14 5 -3 20 -13 11 -23 13 -27
7z"/>
<path d="M3772 6970 c0 -14 2 -19 5 -12 2 6 2 18 0 25 -3 6 -5 1 -5 -13z"/>
<path d="M9263 6913 c-23 -4 -28 -21 -24 -70 1 -15 -4 -23 -14 -23 -9 0 -15 9
-15 24 0 13 -6 27 -12 29 -8 3 -6 6 5 6 9 1 17 8 17 17 0 14 -2 15 -17 3 -10
-8 -22 -17 -28 -22 -5 -4 -22 -16 -37 -28 -19 -14 -28 -30 -28 -49 0 -16 -4
-32 -10 -35 -5 -3 -10 -19 -10 -35 0 -16 -4 -32 -10 -35 -5 -3 -10 -19 -10
-35 0 -16 -4 -31 -9 -34 -5 -3 -11 -20 -14 -38 -2 -18 -12 -59 -21 -91 -11
-39 -16 -98 -16 -178 0 -95 -3 -125 -17 -145 -14 -23 -17 -63 -17 -325 -1
-287 0 -299 19 -313 26 -20 35 -20 35 -1 0 8 9 15 20 15 11 0 20 7 20 15 0 8
5 15 11 15 5 0 7 5 4 10 -3 6 3 10 13 10 11 0 22 7 26 15 3 8 11 15 19 15 7 0
23 10 35 23 41 44 99 83 109 73 3 -3 26 16 52 41 61 60 76 73 84 73 13 0 62
57 83 96 20 37 21 45 9 68 -8 14 -10 26 -6 26 5 0 11 9 14 20 3 11 16 24 29
29 17 7 18 10 6 10 -26 1 -22 13 13 44 19 16 29 33 25 42 -3 9 0 15 9 15 18 0
28 33 20 69 -8 38 -62 64 -77 38 -5 -9 -16 -17 -24 -17 -8 0 -12 5 -9 10 3 6
-1 10 -9 10 -8 0 -26 5 -39 11 -33 15 -44 76 -19 96 9 8 12 12 5 8 -19 -9 -28
43 -14 81 7 19 10 38 7 42 -3 5 6 31 19 58 23 48 23 49 4 67 -10 10 -19 23
-19 30 0 7 -6 23 -13 37 -7 14 -14 43 -15 64 -2 21 -7 47 -12 57 -6 10 -10 29
-10 42 0 23 -3 24 -57 24 -32 0 -68 -2 -80 -4z m94 -44 c-14 -8 -22 -8 -30 0
-8 8 -3 11 19 11 25 -1 27 -2 11 -11z m29 -352 c3 -23 -101 -76 -118 -59 -16
16 7 40 57 63 45 21 57 20 61 -4z"/>
<path d="M6973 6691 c4 -18 2 -21 -13 -16 -10 3 -21 1 -25 -5 -3 -5 -39 -11
-78 -12 l-72 -1 65 -7 c100 -12 182 -11 175 0 -3 6 1 10 10 10 9 0 14 -3 12
-7 -3 -5 25 -8 61 -9 40 0 79 -7 97 -16 17 -9 73 -21 125 -27 153 -18 210 -32
241 -58 29 -25 29 -25 29 -137 0 -62 4 -116 9 -121 17 -19 19 -71 5 -110 -17
-49 -32 -389 -17 -398 17 -10 82 13 93 33 6 12 10 153 10 372 0 392 -2 403
-67 441 -42 24 -312 66 -464 71 -35 2 -95 7 -133 11 -68 8 -69 8 -63 -14z"/>
<path d="M5770 6690 c-18 -12 -2 -12 25 0 13 6 15 9 5 9 -8 0 -22 -4 -30 -9z"/>
<path d="M4290 6683 c-151 -11 -370 -39 -395 -49 -17 -7 -39 -22 -50 -34 -19
-21 -20 -40 -23 -387 l-3 -364 35 -35 c50 -50 60 -45 51 23 -4 31 -7 183 -7
338 0 300 3 323 52 373 30 32 50 38 180 56 62 9 115 18 118 21 3 3 0 5 -6 5
-7 0 -12 4 -12 9 0 5 26 15 57 23 61 15 62 25 3 21z"/>
<path d="M5821 6669 c-18 -6 -31 -12 -28 -15 8 -8 127 8 127 17 0 12 -55 10
-99 -2z"/>
<path d="M4653 6653 c9 -2 25 -2 35 0 9 3 1 5 -18 5 -19 0 -27 -2 -17 -5z"/>
<path d="M5883 6639 c-63 -15 -64 -38 -3 -37 28 1 53 -2 57 -6 11 -10 -19 -26
-38 -21 -9 3 -26 2 -39 -3 -25 -9 -31 -5 95 -62 72 -33 37 -37 -42 -5 -75 30
-98 27 -89 -10 5 -18 2 -25 -9 -25 -22 0 -18 -11 20 -54 44 -49 46 -70 2 -28
-18 18 -43 32 -55 32 -15 0 -22 6 -22 20 0 11 -4 20 -10 20 -5 0 -9 -3 -9 -7
1 -5 1 -19 0 -32 -1 -20 -3 -22 -17 -10 -14 12 -15 7 -9 -45 6 -43 5 -57 -4
-52 -6 4 -11 17 -11 30 0 30 -22 76 -37 76 -7 0 -17 -8 -22 -17 -9 -16 -12
-16 -20 -3 -8 12 -13 7 -26 -22 -8 -21 -15 -46 -15 -57 0 -11 -5 -23 -11 -27
-11 -7 -10 12 7 107 7 43 -8 58 -33 33 -16 -15 -17 -15 -23 0 -5 14 -10 12
-35 -14 -17 -18 -38 -36 -48 -42 -16 -8 -17 -7 -8 11 6 11 16 23 21 26 6 3 10
15 10 26 0 11 7 31 17 45 l16 25 -29 -7 c-24 -5 -27 -4 -16 7 21 22 13 28 -20
17 -47 -15 -74 -44 -105 -107 -59 -119 -26 -261 82 -359 56 -51 160 -104 250
-127 82 -21 252 -21 335 0 94 24 201 80 257 133 82 79 115 176 99 285 -20 133
-210 288 -360 294 -33 1 -80 -3 -103 -8z m154 -165 c-3 -3 -12 -4 -19 -1 -8 3
-5 6 6 6 11 1 17 -2 13 -5z m-297 -222 c0 -7 -4 -10 -10 -7 -5 3 -10 16 -10
28 0 18 2 19 10 7 5 -8 10 -21 10 -28z m473 -124 c-20 -35 -82 -72 -110 -66
-13 3 -7 10 22 25 22 12 51 33 64 47 34 36 47 33 24 -6z"/>
<path d="M7116 6631 c31 -14 35 -25 18 -49 -11 -16 -25 -22 -54 -22 -44 0 -58
13 -38 37 12 15 11 15 -9 4 -30 -16 -43 -42 -43 -88 0 -70 52 -113 137 -113
73 0 132 48 133 108 1 57 -57 113 -130 126 -27 5 -30 4 -14 -3z m104 -180 c0
-5 -7 -12 -16 -15 -14 -5 -15 -4 -4 9 14 17 20 19 20 6z"/>
<path d="M4326 6612 c-2 -4 13 -7 34 -7 52 0 59 -11 29 -41 -22 -22 -32 -24
-62 -19 -32 6 -35 9 -26 26 15 29 -6 23 -30 -7 -60 -77 10 -184 120 -184 136
0 185 167 64 224 -34 17 -120 22 -129 8z"/>
<path d="M5455 6574 c-33 -21 -35 -25 -14 -20 15 3 46 14 70 25 42 19 43 20
14 20 -16 0 -48 -11 -70 -25z"/>
<path d="M3270 6545 c-91 -19 -185 -39 -210 -44 -60 -13 -189 -59 -169 -60 9
-1 19 -8 22 -15 4 -10 1 -13 -8 -10 -8 3 -22 -1 -30 -10 -12 -12 -13 -16 -3
-16 10 0 9 -3 -2 -10 -22 -14 -4 -12 96 10 305 69 462 101 567 116 26 3 47 9
47 13 0 4 -11 18 -25 31 -37 35 -97 34 -285 -5z"/>
<path d="M7958 6568 c-9 -7 -18 -22 -20 -33 -3 -17 9 -22 117 -41 66 -12 139
-25 162 -29 l42 -6 -8 28 c-4 15 -6 33 -4 39 2 6 -2 11 -9 12 -7 0 -58 10
-113 21 -116 24 -145 26 -167 9z"/>
<path d="M4693 6353 c-27 -5 -72 -50 -85 -83 -33 -88 78 -183 177 -150 47 15
95 72 95 112 0 83 -88 140 -187 121z m51 -19 c14 -5 14 -8 -1 -30 -12 -19 -24
-24 -54 -24 -42 0 -49 12 -22 42 16 18 48 23 77 12z"/>
<path d="M6809 6334 l35 -15 -26 -25 c-21 -22 -31 -24 -61 -19 -38 8 -46 21
-24 45 9 11 8 11 -8 0 -35 -26 -44 -44 -45 -90 0 -75 52 -120 138 -120 141 0
175 171 45 226 -18 8 -45 14 -60 14 -28 -1 -28 -1 6 -16z m101 -168 c0 -3 -4
-8 -10 -11 -5 -3 -10 -1 -10 4 0 6 5 11 10 11 6 0 10 -2 10 -4z"/>
<path d="M7110 6344 c38 -9 46 -21 25 -44 -12 -14 -31 -20 -58 -20 -37 0 -39
2 -33 25 8 33 -14 24 -37 -14 -31 -52 -18 -109 34 -150 57 -44 125 -39 182 13
31 28 37 40 37 75 0 33 -7 49 -32 76 -29 31 -41 36 -88 40 -30 2 -44 2 -30 -1z
m120 -178 c0 -2 -7 -6 -15 -10 -8 -3 -15 -1 -15 4 0 6 7 10 15 10 8 0 15 -2
15 -4z"/>
<path d="M7445 6343 c43 -11 48 -25 19 -50 -22 -18 -35 -22 -58 -17 -40 8 -43
11 -28 35 12 18 11 19 -6 10 -11 -6 -27 -26 -36 -46 -38 -80 27 -165 127 -165
44 0 54 4 88 39 32 31 39 46 39 76 0 69 -69 128 -145 124 l-20 -1 20 -5z"/>
<path d="M4355 6331 c-27 -11 -73 -58 -81 -83 -11 -37 6 -86 42 -117 88 -78
250 -5 230 103 -14 74 -118 126 -191 97z m53 -10 c21 -13 -6 -61 -34 -61 -57
0 -72 30 -26 54 31 18 42 19 60 7z"/>
<path d="M8260 6326 c-76 -29 -89 -36 -115 -62 -67 -67 -84 -178 -41 -271 97
-208 424 -237 520 -46 10 19 17 59 17 97 1 82 -22 133 -93 203 -81 79 -200
112 -288 79z m176 -28 c21 -10 24 -16 19 -37 -18 -73 -111 -92 -169 -35 -17
18 -31 24 -45 19 -12 -3 -21 -4 -21 -1 0 14 54 65 74 70 30 6 113 -3 142 -16z
m64 -68 c0 -5 -6 -10 -14 -10 -8 0 -18 5 -21 10 -3 6 3 10 14 10 12 0 21 -4
21 -10z m14 -355 c-22 -17 -74 -20 -74 -5 0 6 6 10 14 10 7 0 27 7 42 15 34
17 47 2 18 -20z"/>
<path d="M3000 6302 c-64 -24 -102 -46 -128 -75 -29 -31 -71 -133 -67 -161 2
-12 6 -41 10 -66 14 -105 112 -180 244 -188 90 -5 137 6 211 50 90 54 138 173
111 274 -16 58 -79 126 -143 154 -70 31 -176 36 -238 12z m77 -58 c3 -36 -1
-46 -28 -73 -29 -30 -35 -31 -98 -29 l-66 3 3 33 c7 52 98 114 161 109 21 -2
25 -8 28 -43z m233 -289 c-13 -14 -28 -25 -34 -25 -5 0 3 13 19 30 16 16 31
28 33 25 3 -3 -5 -16 -18 -30z"/>
<path d="M4013 6291 c-40 -25 -53 -49 -53 -100 0 -111 153 -160 237 -76 47 47
46 101 -1 152 -30 33 -39 37 -92 40 -46 3 -66 0 -91 -16z m82 -1 c3 -6 3 -19
0 -30 -5 -15 -15 -20 -44 -20 -43 0 -52 6 -44 27 10 26 75 43 88 23z"/>
<path d="M5150 6107 c0 -21 44 -90 89 -139 74 -81 166 -138 222 -138 l44 0
-90 44 c-102 51 -180 115 -231 190 -19 28 -34 47 -34 43z"/>
<path d="M6468 6072 c-21 -35 -92 -109 -140 -145 -20 -16 -72 -44 -115 -63
l-78 -34 47 0 c81 0 221 108 289 225 12 20 20 38 17 40 -2 2 -11 -8 -20 -23z"/>
<path d="M7128 6050 c26 -11 28 -23 6 -44 -17 -18 -61 -21 -84 -6 -12 7 -11
12 5 31 20 22 20 22 0 11 -68 -35 -82 -118 -30 -172 40 -41 93 -57 144 -41 48
14 101 71 101 109 0 63 -68 123 -137 121 -27 0 -27 -1 -5 -9z m97 -180 c-3 -5
-11 -10 -16 -10 -6 0 -7 5 -4 10 3 6 11 10 16 10 6 0 7 -4 4 -10z"/>
<path d="M4352 6029 c-60 -39 -77 -99 -42 -156 28 -47 72 -66 137 -61 44 4 60
11 85 35 42 42 49 106 17 147 -44 56 -137 73 -197 35z m77 2 c10 -7 11 -13 2
-30 -9 -16 -21 -21 -51 -21 -46 0 -54 19 -18 44 25 18 46 20 67 7z"/>
<path d="M6681 5637 c-68 -18 -60 -32 22 -35 39 -1 144 -7 232 -12 88 -5 241
-14 340 -20 197 -11 522 -34 710 -50 148 -12 174 -12 157 -2 -7 5 -10 15 -7
23 4 11 -12 17 -76 27 -323 51 -1269 98 -1378 69z"/>
<path d="M4455 5633 c-392 -11 -963 -50 -1215 -83 -285 -38 -338 -50 -376 -85
-15 -14 -34 -25 -42 -25 -8 0 -13 -3 -10 -6 3 -3 118 11 254 30 420 60 945
106 1449 127 154 6 285 16 290 21 6 6 -2 9 -25 7 -23 -2 -34 1 -32 9 3 15 -32
16 -59 2 -13 -7 -19 -7 -19 0 0 5 -9 10 -21 10 -11 0 -18 -4 -15 -9 4 -5 -13
-7 -36 -5 -32 3 -38 2 -23 -5 16 -8 17 -10 3 -10 -9 -1 -23 5 -30 12 -9 8 -40
11 -93 10z"/>
<path d="M4868 5613 c18 -2 45 -2 60 0 15 2 0 4 -33 4 -33 0 -45 -2 -27 -4z"/>
<path d="M8230 5520 c0 -5 -8 -10 -17 -11 -33 -2 30 -17 72 -17 34 -1 37 1 17
9 -13 5 -20 13 -17 19 4 6 -6 10 -24 10 -17 0 -31 -4 -31 -10z"/>
<path d="M10626 5453 c-6 -14 -5 -15 5 -6 7 7 10 15 7 18 -3 3 -9 -2 -12 -12z"/>
<path d="M4690 5429 c-284 -10 -607 -27 -860 -45 -477 -34 -875 -87 -1055
-139 l-50 -14 105 1 c58 0 141 7 185 14 44 7 215 15 380 19 419 9 526 13 542
19 8 3 12 2 9 -2 -2 -4 17 -8 44 -7 26 0 46 4 42 9 -3 6 3 6 14 2 10 -5 26 -8
34 -7 8 0 27 1 43 2 15 0 27 6 27 12 0 8 3 9 8 2 9 -14 52 -17 52 -3 0 6 6 5
16 -3 13 -10 17 -10 24 1 7 11 12 11 23 2 14 -12 128 -10 160 3 20 8 182 -1
199 -11 6 -4 8 -3 4 4 -3 6 3 14 15 17 12 4 24 3 28 -3 9 -14 42 -17 71 -5 28
11 250 10 268 -1 7 -4 12 -2 12 4 0 6 19 10 48 10 26 -1 55 -1 65 -1 9 0 27 0
40 0 12 0 83 0 157 1 74 1 144 0 155 -1 11 -1 72 1 136 4 64 3 132 2 152 -3
22 -4 39 -4 43 1 3 5 11 6 17 2 7 -4 55 -6 107 -3 90 3 145 3 173 0 6 -1 39 0
72 3 33 3 65 1 72 -5 7 -5 18 -6 25 -2 20 12 52 12 61 0 4 -7 10 -8 15 -1 7
11 87 14 97 4 6 -7 85 -3 122 6 12 3 24 2 26 -2 3 -5 45 -7 94 -5 48 2 99 4
113 4 14 1 53 -3 88 -9 39 -6 62 -6 62 0 0 5 12 7 28 4 85 -18 92 -19 92 -7 0
8 15 10 53 5 28 -3 81 -7 117 -8 36 -1 68 -6 72 -12 4 -5 9 -3 13 6 4 12 17
14 63 9 31 -4 95 -5 142 -3 47 3 130 0 185 -6 54 -6 102 -6 105 -2 3 5 20 12
39 16 53 11 118 43 101 49 -49 18 -698 58 -1205 76 -326 11 -1756 11 -2085 -1z"/>
<path d="M9027 5383 c-10 -9 -9 -33 1 -33 4 0 8 9 9 20 2 21 0 24 -10 13z"/>
<path d="M8071 5319 c9 -17 8 -23 -2 -30 -8 -5 -9 -9 -4 -10 44 -5 125 -9 274
-13 96 -3 222 -10 279 -16 58 -6 106 -9 108 -7 2 2 -31 11 -74 21 -42 9 -95
21 -117 26 -67 16 -346 50 -413 50 -61 0 -62 -1 -51 -21z"/>
<path d="M10860 5330 c0 -5 5 -10 10 -10 6 0 10 5 10 10 0 6 -4 10 -10 10 -5
0 -10 -4 -10 -10z"/>
<path d="M5425 5300 c-18 -8 -17 -9 8 -9 16 -1 26 3 22 9 -3 6 -7 10 -8 9 -1
0 -11 -4 -22 -9z"/>
<path d="M2660 4348 c0 -463 4 -749 10 -758 6 -10 10 250 10 743 0 498 -3 757
-10 757 -7 0 -10 -254 -10 -742z"/>
<path d="M7863 4943 c-62 -2 -113 -7 -113 -11 1 -15 106 -186 117 -189 6 -2
37 38 67 89 52 88 66 121 49 116 -5 -1 -59 -4 -120 -5z"/>
<path d="M3290 4640 l0 -160 220 0 c166 0 229 3 254 14 97 40 115 201 31 275
l-36 31 -234 0 -235 0 0 -160z"/>
<path d="M5700 4785 c0 -8 -4 -15 -10 -15 -5 0 -10 5 -10 11 0 17 -68 1 -124
-29 -26 -15 -68 -49 -92 -77 -82 -93 -110 -217 -102 -457 4 -122 10 -166 27
-217 60 -175 183 -257 381 -255 146 2 247 51 317 153 60 88 68 132 68 371 0
242 -8 283 -72 376 -37 55 -66 80 -128 111 -80 41 -255 60 -255 28z"/>
<path d="M3290 3924 l0 -165 248 3 c274 3 293 7 333 71 27 43 23 153 -7 194
-43 59 -65 63 -331 63 l-243 0 0 -166z"/>
</g>
</svg>
